<mxfile host="Electron" agent="Mozilla/5.0 (Macintosh; Intel Mac OS X 10_15_7) AppleWebKit/537.36 (KHTML, like Gecko) draw.io/24.7.17 Chrome/128.0.6613.36 Electron/32.0.1 Safari/537.36" version="24.7.17">
  <diagram id="kj-T1o_AgSEZvzhv4TZD" name="Figure">
    <mxGraphModel dx="142" dy="796" grid="1" gridSize="10" guides="0" tooltips="1" connect="1" arrows="1" fold="1" page="1" pageScale="1" pageWidth="1100" pageHeight="850" math="0" shadow="0">
      <root>
        <mxCell id="0" />
        <mxCell id="1" parent="0" />
        <mxCell id="W86Jo-8nj4oamTTUEr1X-127" value="1" style="whiteSpace=wrap;html=1;aspect=fixed;fontSize=24;container=0;fillColor=#c7eafb;strokeColor=none;" parent="1" vertex="1">
          <mxGeometry x="1600" y="640" width="40" height="40" as="geometry" />
        </mxCell>
        <mxCell id="W86Jo-8nj4oamTTUEr1X-128" value="1" style="whiteSpace=wrap;html=1;aspect=fixed;fontSize=24;container=0;fillColor=#c7eafb;strokeColor=none;" parent="1" vertex="1">
          <mxGeometry x="1640" y="640" width="40" height="40" as="geometry" />
        </mxCell>
        <mxCell id="W86Jo-8nj4oamTTUEr1X-129" value="1" style="whiteSpace=wrap;html=1;aspect=fixed;fontSize=24;container=0;fillColor=#c7eafb;strokeColor=none;" parent="1" vertex="1">
          <mxGeometry x="1680" y="640" width="40" height="40" as="geometry" />
        </mxCell>
        <mxCell id="W86Jo-8nj4oamTTUEr1X-130" value="1" style="whiteSpace=wrap;html=1;aspect=fixed;fontSize=24;container=0;fillColor=#c7eafb;strokeColor=none;" parent="1" vertex="1">
          <mxGeometry x="1720" y="640" width="40" height="40" as="geometry" />
        </mxCell>
        <mxCell id="W86Jo-8nj4oamTTUEr1X-131" value="1" style="whiteSpace=wrap;html=1;aspect=fixed;fontSize=24;container=0;fillColor=#c7eafb;strokeColor=none;" parent="1" vertex="1">
          <mxGeometry x="1760" y="640" width="40" height="40" as="geometry" />
        </mxCell>
        <mxCell id="W86Jo-8nj4oamTTUEr1X-132" value="1" style="whiteSpace=wrap;html=1;aspect=fixed;fontSize=24;container=0;fillColor=#c7eafb;strokeColor=none;" parent="1" vertex="1">
          <mxGeometry x="1800" y="640" width="40" height="40" as="geometry" />
        </mxCell>
        <mxCell id="W86Jo-8nj4oamTTUEr1X-133" value="1" style="whiteSpace=wrap;html=1;aspect=fixed;fontSize=24;container=0;fillColor=#c7eafb;strokeColor=none;" parent="1" vertex="1">
          <mxGeometry x="1840" y="640" width="40" height="40" as="geometry" />
        </mxCell>
        <mxCell id="W86Jo-8nj4oamTTUEr1X-134" value="1" style="whiteSpace=wrap;html=1;aspect=fixed;fontSize=24;container=0;fillColor=#c7eafb;strokeColor=none;" parent="1" vertex="1">
          <mxGeometry x="1880" y="640" width="40" height="40" as="geometry" />
        </mxCell>
        <mxCell id="W86Jo-8nj4oamTTUEr1X-135" value="1" style="whiteSpace=wrap;html=1;aspect=fixed;fontSize=24;container=0;fillColor=#c7eafb;strokeColor=none;" parent="1" vertex="1">
          <mxGeometry x="1920" y="640" width="40" height="40" as="geometry" />
        </mxCell>
        <mxCell id="W86Jo-8nj4oamTTUEr1X-136" value="1" style="whiteSpace=wrap;html=1;aspect=fixed;fontSize=24;container=0;fillColor=#c7eafb;strokeColor=none;" parent="1" vertex="1">
          <mxGeometry x="1960" y="640" width="40" height="40" as="geometry" />
        </mxCell>
        <mxCell id="W86Jo-8nj4oamTTUEr1X-137" value="1" style="whiteSpace=wrap;html=1;aspect=fixed;fontSize=24;container=0;fillColor=#c7eafb;strokeColor=none;" parent="1" vertex="1">
          <mxGeometry x="2000" y="640" width="40" height="40" as="geometry" />
        </mxCell>
        <mxCell id="W86Jo-8nj4oamTTUEr1X-138" value="1" style="whiteSpace=wrap;html=1;aspect=fixed;fontSize=24;container=0;fillColor=#c7eafb;strokeColor=none;" parent="1" vertex="1">
          <mxGeometry x="1600" y="680" width="40" height="40" as="geometry" />
        </mxCell>
        <mxCell id="W86Jo-8nj4oamTTUEr1X-139" value="1" style="whiteSpace=wrap;html=1;aspect=fixed;fontSize=24;container=0;fillColor=#c7eafb;strokeColor=none;" parent="1" vertex="1">
          <mxGeometry x="1640" y="680" width="40" height="40" as="geometry" />
        </mxCell>
        <mxCell id="W86Jo-8nj4oamTTUEr1X-140" value="1" style="whiteSpace=wrap;html=1;aspect=fixed;fontSize=24;container=0;fillColor=#c7eafb;strokeColor=none;" parent="1" vertex="1">
          <mxGeometry x="1680" y="680" width="40" height="40" as="geometry" />
        </mxCell>
        <mxCell id="W86Jo-8nj4oamTTUEr1X-141" value="1" style="whiteSpace=wrap;html=1;aspect=fixed;fontSize=24;container=0;fillColor=#c7eafb;strokeColor=none;" parent="1" vertex="1">
          <mxGeometry x="1720" y="680" width="40" height="40" as="geometry" />
        </mxCell>
        <mxCell id="W86Jo-8nj4oamTTUEr1X-142" value="1" style="whiteSpace=wrap;html=1;aspect=fixed;fontSize=24;container=0;fillColor=#c7eafb;strokeColor=none;" parent="1" vertex="1">
          <mxGeometry x="1760" y="680" width="40" height="40" as="geometry" />
        </mxCell>
        <mxCell id="W86Jo-8nj4oamTTUEr1X-143" value="1" style="whiteSpace=wrap;html=1;aspect=fixed;fontSize=24;container=0;fillColor=#c7eafb;strokeColor=none;" parent="1" vertex="1">
          <mxGeometry x="1800" y="680" width="40" height="40" as="geometry" />
        </mxCell>
        <mxCell id="W86Jo-8nj4oamTTUEr1X-144" value="1" style="whiteSpace=wrap;html=1;aspect=fixed;fontSize=24;container=0;fillColor=#c7eafb;strokeColor=none;" parent="1" vertex="1">
          <mxGeometry x="1840" y="680" width="40" height="40" as="geometry" />
        </mxCell>
        <mxCell id="W86Jo-8nj4oamTTUEr1X-145" value="2" style="whiteSpace=wrap;html=1;aspect=fixed;fontSize=24;container=0;fillColor=#bf7f40;strokeColor=none;" parent="1" vertex="1">
          <mxGeometry x="1880" y="680" width="40" height="40" as="geometry" />
        </mxCell>
        <mxCell id="W86Jo-8nj4oamTTUEr1X-146" value="1" style="whiteSpace=wrap;html=1;aspect=fixed;fontSize=24;container=0;fillColor=#c7eafb;strokeColor=none;" parent="1" vertex="1">
          <mxGeometry x="1960" y="680" width="40" height="40" as="geometry" />
        </mxCell>
        <mxCell id="W86Jo-8nj4oamTTUEr1X-147" value="1" style="whiteSpace=wrap;html=1;aspect=fixed;fontSize=24;container=0;fillColor=#c7eafb;strokeColor=none;" parent="1" vertex="1">
          <mxGeometry x="2000" y="680" width="40" height="40" as="geometry" />
        </mxCell>
        <mxCell id="W86Jo-8nj4oamTTUEr1X-148" value="1" style="whiteSpace=wrap;html=1;aspect=fixed;fontSize=24;container=0;fillColor=#c7eafb;strokeColor=none;" parent="1" vertex="1">
          <mxGeometry x="1600" y="720" width="40" height="40" as="geometry" />
        </mxCell>
        <mxCell id="W86Jo-8nj4oamTTUEr1X-149" value="1" style="whiteSpace=wrap;html=1;aspect=fixed;fontSize=24;container=0;fillColor=#c7eafb;strokeColor=none;" parent="1" vertex="1">
          <mxGeometry x="1640" y="720" width="40" height="40" as="geometry" />
        </mxCell>
        <mxCell id="W86Jo-8nj4oamTTUEr1X-150" value="1" style="whiteSpace=wrap;html=1;aspect=fixed;fontSize=24;container=0;fillColor=#c7eafb;strokeColor=none;" parent="1" vertex="1">
          <mxGeometry x="1680" y="720" width="40" height="40" as="geometry" />
        </mxCell>
        <mxCell id="W86Jo-8nj4oamTTUEr1X-151" value="1" style="whiteSpace=wrap;html=1;aspect=fixed;fontSize=24;container=0;fillColor=#c7eafb;strokeColor=none;" parent="1" vertex="1">
          <mxGeometry x="1720" y="720" width="40" height="40" as="geometry" />
        </mxCell>
        <mxCell id="W86Jo-8nj4oamTTUEr1X-152" value="1" style="whiteSpace=wrap;html=1;aspect=fixed;fontSize=24;container=0;fillColor=#c7eafb;strokeColor=none;" parent="1" vertex="1">
          <mxGeometry x="1760" y="720" width="40" height="40" as="geometry" />
        </mxCell>
        <mxCell id="W86Jo-8nj4oamTTUEr1X-153" value="1" style="whiteSpace=wrap;html=1;aspect=fixed;fontSize=24;container=0;fillColor=#c7eafb;strokeColor=none;" parent="1" vertex="1">
          <mxGeometry x="1800" y="720" width="40" height="40" as="geometry" />
        </mxCell>
        <mxCell id="W86Jo-8nj4oamTTUEr1X-154" value="1" style="whiteSpace=wrap;html=1;aspect=fixed;fontSize=24;container=0;fillColor=#c7eafb;strokeColor=none;" parent="1" vertex="1">
          <mxGeometry x="2000" y="720" width="40" height="40" as="geometry" />
        </mxCell>
        <mxCell id="W86Jo-8nj4oamTTUEr1X-155" value="1" style="whiteSpace=wrap;html=1;aspect=fixed;fontSize=24;container=0;fillColor=#c7eafb;strokeColor=none;" parent="1" vertex="1">
          <mxGeometry x="1720" y="760" width="40" height="40" as="geometry" />
        </mxCell>
        <mxCell id="W86Jo-8nj4oamTTUEr1X-156" value="1" style="whiteSpace=wrap;html=1;aspect=fixed;fontSize=24;container=0;fillColor=#c7eafb;strokeColor=none;" parent="1" vertex="1">
          <mxGeometry x="1760" y="760" width="40" height="40" as="geometry" />
        </mxCell>
        <mxCell id="W86Jo-8nj4oamTTUEr1X-157" value="1" style="whiteSpace=wrap;html=1;aspect=fixed;fontSize=24;container=0;fillColor=#c7eafb;strokeColor=none;" parent="1" vertex="1">
          <mxGeometry x="1800" y="760" width="40" height="40" as="geometry" />
        </mxCell>
        <mxCell id="W86Jo-8nj4oamTTUEr1X-158" value="1" style="whiteSpace=wrap;html=1;aspect=fixed;fontSize=24;container=0;fillColor=#c7eafb;strokeColor=none;" parent="1" vertex="1">
          <mxGeometry x="2000" y="800" width="40" height="40" as="geometry" />
        </mxCell>
        <mxCell id="W86Jo-8nj4oamTTUEr1X-159" value="1" style="whiteSpace=wrap;html=1;aspect=fixed;fontSize=24;container=0;fillColor=#c7eafb;strokeColor=none;" parent="1" vertex="1">
          <mxGeometry x="1600" y="840" width="40" height="40" as="geometry" />
        </mxCell>
        <mxCell id="W86Jo-8nj4oamTTUEr1X-160" value="1" style="whiteSpace=wrap;html=1;aspect=fixed;fontSize=24;container=0;fillColor=#c7eafb;strokeColor=none;" parent="1" vertex="1">
          <mxGeometry x="2000" y="840" width="40" height="40" as="geometry" />
        </mxCell>
        <mxCell id="W86Jo-8nj4oamTTUEr1X-161" value="1" style="whiteSpace=wrap;html=1;aspect=fixed;fontSize=24;container=0;fillColor=#c7eafb;strokeColor=none;" parent="1" vertex="1">
          <mxGeometry x="1600" y="880" width="40" height="40" as="geometry" />
        </mxCell>
        <mxCell id="W86Jo-8nj4oamTTUEr1X-162" value="1" style="whiteSpace=wrap;html=1;aspect=fixed;fontSize=24;container=0;fillColor=#c7eafb;strokeColor=none;" parent="1" vertex="1">
          <mxGeometry x="1640" y="880" width="40" height="40" as="geometry" />
        </mxCell>
        <mxCell id="W86Jo-8nj4oamTTUEr1X-163" value="1" style="whiteSpace=wrap;html=1;aspect=fixed;fontSize=24;container=0;fillColor=#c7eafb;strokeColor=none;" parent="1" vertex="1">
          <mxGeometry x="1960" y="880" width="40" height="40" as="geometry" />
        </mxCell>
        <mxCell id="W86Jo-8nj4oamTTUEr1X-164" value="1" style="whiteSpace=wrap;html=1;aspect=fixed;fontSize=24;container=0;fillColor=#c7eafb;strokeColor=none;" parent="1" vertex="1">
          <mxGeometry x="2000" y="880" width="40" height="40" as="geometry" />
        </mxCell>
        <mxCell id="W86Jo-8nj4oamTTUEr1X-165" value="1" style="whiteSpace=wrap;html=1;aspect=fixed;fontSize=24;container=0;fillColor=#c7eafb;strokeColor=none;" parent="1" vertex="1">
          <mxGeometry x="1600" y="920" width="40" height="40" as="geometry" />
        </mxCell>
        <mxCell id="W86Jo-8nj4oamTTUEr1X-166" value="1" style="whiteSpace=wrap;html=1;aspect=fixed;fontSize=24;container=0;fillColor=#c7eafb;strokeColor=none;" parent="1" vertex="1">
          <mxGeometry x="1960" y="920" width="40" height="40" as="geometry" />
        </mxCell>
        <mxCell id="W86Jo-8nj4oamTTUEr1X-167" value="1" style="whiteSpace=wrap;html=1;aspect=fixed;fontSize=24;container=0;fillColor=#c7eafb;strokeColor=none;" parent="1" vertex="1">
          <mxGeometry x="2000" y="920" width="40" height="40" as="geometry" />
        </mxCell>
        <mxCell id="W86Jo-8nj4oamTTUEr1X-168" value="1" style="whiteSpace=wrap;html=1;aspect=fixed;fontSize=24;container=0;fillColor=#c7eafb;strokeColor=none;" parent="1" vertex="1">
          <mxGeometry x="1920" y="960" width="40" height="40" as="geometry" />
        </mxCell>
        <mxCell id="W86Jo-8nj4oamTTUEr1X-169" value="1" style="whiteSpace=wrap;html=1;aspect=fixed;fontSize=24;container=0;fillColor=#c7eafb;strokeColor=none;" parent="1" vertex="1">
          <mxGeometry x="1960" y="960" width="40" height="40" as="geometry" />
        </mxCell>
        <mxCell id="W86Jo-8nj4oamTTUEr1X-170" value="1" style="whiteSpace=wrap;html=1;aspect=fixed;fontSize=24;container=0;fillColor=#c7eafb;strokeColor=none;" parent="1" vertex="1">
          <mxGeometry x="2000" y="960" width="40" height="40" as="geometry" />
        </mxCell>
        <mxCell id="W86Jo-8nj4oamTTUEr1X-171" value="1" style="whiteSpace=wrap;html=1;aspect=fixed;fontSize=24;container=0;fillColor=#c7eafb;strokeColor=none;" parent="1" vertex="1">
          <mxGeometry x="1840" y="1000" width="40" height="40" as="geometry" />
        </mxCell>
        <mxCell id="W86Jo-8nj4oamTTUEr1X-172" value="1" style="whiteSpace=wrap;html=1;aspect=fixed;fontSize=24;container=0;fillColor=#c7eafb;strokeColor=none;" parent="1" vertex="1">
          <mxGeometry x="1920" y="1000" width="40" height="40" as="geometry" />
        </mxCell>
        <mxCell id="W86Jo-8nj4oamTTUEr1X-173" value="1" style="whiteSpace=wrap;html=1;aspect=fixed;fontSize=24;container=0;fillColor=#c7eafb;strokeColor=none;" parent="1" vertex="1">
          <mxGeometry x="1960" y="1000" width="40" height="40" as="geometry" />
        </mxCell>
        <mxCell id="W86Jo-8nj4oamTTUEr1X-174" value="1" style="whiteSpace=wrap;html=1;aspect=fixed;fontSize=24;container=0;fillColor=#c7eafb;strokeColor=none;" parent="1" vertex="1">
          <mxGeometry x="2000" y="1000" width="40" height="40" as="geometry" />
        </mxCell>
        <mxCell id="W86Jo-8nj4oamTTUEr1X-175" value="1" style="whiteSpace=wrap;html=1;aspect=fixed;fontSize=24;container=0;fillColor=#c7eafb;strokeColor=none;" parent="1" vertex="1">
          <mxGeometry x="1600" y="1040" width="40" height="40" as="geometry" />
        </mxCell>
        <mxCell id="W86Jo-8nj4oamTTUEr1X-176" value="1" style="whiteSpace=wrap;html=1;aspect=fixed;fontSize=24;container=0;fillColor=#c7eafb;strokeColor=none;" parent="1" vertex="1">
          <mxGeometry x="1640" y="1040" width="40" height="40" as="geometry" />
        </mxCell>
        <mxCell id="W86Jo-8nj4oamTTUEr1X-177" value="1" style="whiteSpace=wrap;html=1;aspect=fixed;fontSize=24;container=0;fillColor=#c7eafb;strokeColor=none;" parent="1" vertex="1">
          <mxGeometry x="1680" y="1040" width="40" height="40" as="geometry" />
        </mxCell>
        <mxCell id="W86Jo-8nj4oamTTUEr1X-178" value="1" style="whiteSpace=wrap;html=1;aspect=fixed;fontSize=24;container=0;fillColor=#c7eafb;strokeColor=none;" parent="1" vertex="1">
          <mxGeometry x="1720" y="1040" width="40" height="40" as="geometry" />
        </mxCell>
        <mxCell id="W86Jo-8nj4oamTTUEr1X-179" value="1" style="whiteSpace=wrap;html=1;aspect=fixed;fontSize=24;container=0;fillColor=#c7eafb;strokeColor=none;" parent="1" vertex="1">
          <mxGeometry x="1760" y="1040" width="40" height="40" as="geometry" />
        </mxCell>
        <mxCell id="W86Jo-8nj4oamTTUEr1X-180" value="1" style="whiteSpace=wrap;html=1;aspect=fixed;fontSize=24;container=0;fillColor=#c7eafb;strokeColor=none;" parent="1" vertex="1">
          <mxGeometry x="1840" y="1040" width="40" height="40" as="geometry" />
        </mxCell>
        <mxCell id="W86Jo-8nj4oamTTUEr1X-181" value="1" style="whiteSpace=wrap;html=1;aspect=fixed;fontSize=24;container=0;fillColor=#c7eafb;strokeColor=none;" parent="1" vertex="1">
          <mxGeometry x="1920" y="1040" width="40" height="40" as="geometry" />
        </mxCell>
        <mxCell id="W86Jo-8nj4oamTTUEr1X-182" value="1" style="whiteSpace=wrap;html=1;aspect=fixed;fontSize=24;container=0;fillColor=#c7eafb;strokeColor=none;" parent="1" vertex="1">
          <mxGeometry x="1960" y="1040" width="40" height="40" as="geometry" />
        </mxCell>
        <mxCell id="W86Jo-8nj4oamTTUEr1X-183" value="1" style="whiteSpace=wrap;html=1;aspect=fixed;fontSize=24;container=0;fillColor=#c7eafb;strokeColor=none;" parent="1" vertex="1">
          <mxGeometry x="2000" y="1040" width="40" height="40" as="geometry" />
        </mxCell>
        <mxCell id="W86Jo-8nj4oamTTUEr1X-184" value="2" style="whiteSpace=wrap;html=1;aspect=fixed;fontSize=24;container=0;fillColor=#bf7f40;strokeColor=none;" parent="1" vertex="1">
          <mxGeometry x="1920" y="680" width="40" height="40" as="geometry" />
        </mxCell>
        <mxCell id="W86Jo-8nj4oamTTUEr1X-185" value="2" style="whiteSpace=wrap;html=1;aspect=fixed;fontSize=24;container=0;fillColor=#bf7f40;strokeColor=none;" parent="1" vertex="1">
          <mxGeometry x="1840" y="720" width="40" height="40" as="geometry" />
        </mxCell>
        <mxCell id="W86Jo-8nj4oamTTUEr1X-186" value="2" style="whiteSpace=wrap;html=1;aspect=fixed;fontSize=24;container=0;fillColor=#bf7f40;strokeColor=none;" parent="1" vertex="1">
          <mxGeometry x="1880" y="720" width="40" height="40" as="geometry" />
        </mxCell>
        <mxCell id="W86Jo-8nj4oamTTUEr1X-187" value="2" style="whiteSpace=wrap;html=1;aspect=fixed;fontSize=24;container=0;fillColor=#bf7f40;strokeColor=none;" parent="1" vertex="1">
          <mxGeometry x="1920" y="720" width="40" height="40" as="geometry" />
        </mxCell>
        <mxCell id="W86Jo-8nj4oamTTUEr1X-188" value="2" style="whiteSpace=wrap;html=1;aspect=fixed;fontSize=24;container=0;fillColor=#bf7f40;strokeColor=none;" parent="1" vertex="1">
          <mxGeometry x="1960" y="720" width="40" height="40" as="geometry" />
        </mxCell>
        <mxCell id="W86Jo-8nj4oamTTUEr1X-189" value="2" style="whiteSpace=wrap;html=1;aspect=fixed;fontSize=24;container=0;fillColor=#bf7f40;strokeColor=none;" parent="1" vertex="1">
          <mxGeometry x="1840" y="760" width="40" height="40" as="geometry" />
        </mxCell>
        <mxCell id="W86Jo-8nj4oamTTUEr1X-190" value="2" style="whiteSpace=wrap;html=1;aspect=fixed;fontSize=24;container=0;fillColor=#bf7f40;strokeColor=none;" parent="1" vertex="1">
          <mxGeometry x="1880" y="760" width="40" height="40" as="geometry" />
        </mxCell>
        <mxCell id="W86Jo-8nj4oamTTUEr1X-191" value="5" style="whiteSpace=wrap;html=1;aspect=fixed;fontSize=24;container=0;fillColor=#000000;gradientColor=none;fontColor=#FFFFFF;strokeColor=none;" parent="1" vertex="1">
          <mxGeometry x="1920" y="760" width="40" height="40" as="geometry" />
        </mxCell>
        <mxCell id="W86Jo-8nj4oamTTUEr1X-192" value="2" style="whiteSpace=wrap;html=1;aspect=fixed;fontSize=24;container=0;fillColor=#bf7f40;strokeColor=none;" parent="1" vertex="1">
          <mxGeometry x="1960" y="760" width="40" height="40" as="geometry" />
        </mxCell>
        <mxCell id="W86Jo-8nj4oamTTUEr1X-193" value="4" style="whiteSpace=wrap;html=1;aspect=fixed;fontSize=24;container=0;fillColor=#ff7f00;strokeColor=none;" parent="1" vertex="1">
          <mxGeometry x="2000" y="760" width="40" height="40" as="geometry" />
        </mxCell>
        <mxCell id="W86Jo-8nj4oamTTUEr1X-194" value="4" style="whiteSpace=wrap;html=1;aspect=fixed;fontSize=24;container=0;fillColor=#ff7f00;strokeColor=none;" parent="1" vertex="1">
          <mxGeometry x="1880" y="1000" width="40" height="40" as="geometry" />
        </mxCell>
        <mxCell id="W86Jo-8nj4oamTTUEr1X-195" value="4" style="whiteSpace=wrap;html=1;aspect=fixed;fontSize=24;container=0;fillColor=#ff7f00;strokeColor=none;" parent="1" vertex="1">
          <mxGeometry x="1880" y="1040" width="40" height="40" as="geometry" />
        </mxCell>
        <mxCell id="W86Jo-8nj4oamTTUEr1X-196" value="4" style="whiteSpace=wrap;html=1;aspect=fixed;fontSize=24;container=0;fillColor=#ff7f00;strokeColor=none;" parent="1" vertex="1">
          <mxGeometry x="1800" y="1040" width="40" height="40" as="geometry" />
        </mxCell>
        <mxCell id="W86Jo-8nj4oamTTUEr1X-197" value="4" style="whiteSpace=wrap;html=1;aspect=fixed;fontSize=24;container=0;fillColor=#ff7f00;strokeColor=none;" parent="1" vertex="1">
          <mxGeometry x="1800" y="1000" width="40" height="40" as="geometry" />
        </mxCell>
        <mxCell id="W86Jo-8nj4oamTTUEr1X-198" value="3" style="whiteSpace=wrap;html=1;aspect=fixed;fontSize=24;container=0;fillColor=#d2a679;strokeColor=none;" parent="1" vertex="1">
          <mxGeometry x="1840" y="800" width="40" height="40" as="geometry" />
        </mxCell>
        <mxCell id="W86Jo-8nj4oamTTUEr1X-199" value="3" style="whiteSpace=wrap;html=1;aspect=fixed;fontSize=24;container=0;fillColor=#d2a679;strokeColor=none;" parent="1" vertex="1">
          <mxGeometry x="1800" y="800" width="40" height="40" as="geometry" />
        </mxCell>
        <mxCell id="W86Jo-8nj4oamTTUEr1X-200" value="3" style="whiteSpace=wrap;html=1;aspect=fixed;fontSize=24;container=0;fillColor=#d2a679;strokeColor=none;" parent="1" vertex="1">
          <mxGeometry x="1760" y="800" width="40" height="40" as="geometry" />
        </mxCell>
        <mxCell id="W86Jo-8nj4oamTTUEr1X-201" value="3" style="whiteSpace=wrap;html=1;aspect=fixed;fontSize=24;container=0;fillColor=#d2a679;strokeColor=none;" parent="1" vertex="1">
          <mxGeometry x="1720" y="800" width="40" height="40" as="geometry" />
        </mxCell>
        <mxCell id="W86Jo-8nj4oamTTUEr1X-202" value="3" style="whiteSpace=wrap;html=1;aspect=fixed;fontSize=24;container=0;fillColor=#d2a679;strokeColor=none;" parent="1" vertex="1">
          <mxGeometry x="1680" y="760" width="40" height="40" as="geometry" />
        </mxCell>
        <mxCell id="W86Jo-8nj4oamTTUEr1X-203" value="3" style="whiteSpace=wrap;html=1;aspect=fixed;fontSize=24;container=0;fillColor=#d2a679;strokeColor=none;" parent="1" vertex="1">
          <mxGeometry x="1640" y="760" width="40" height="40" as="geometry" />
        </mxCell>
        <mxCell id="W86Jo-8nj4oamTTUEr1X-204" value="3" style="whiteSpace=wrap;html=1;aspect=fixed;fontSize=24;container=0;fillColor=#d2a679;strokeColor=none;" parent="1" vertex="1">
          <mxGeometry x="1600" y="760" width="40" height="40" as="geometry" />
        </mxCell>
        <mxCell id="W86Jo-8nj4oamTTUEr1X-205" value="2" style="whiteSpace=wrap;html=1;aspect=fixed;fontSize=24;container=0;fillColor=#bf7f40;strokeColor=none;" parent="1" vertex="1">
          <mxGeometry x="1880" y="800" width="40" height="40" as="geometry" />
        </mxCell>
        <mxCell id="W86Jo-8nj4oamTTUEr1X-206" value="2" style="whiteSpace=wrap;html=1;aspect=fixed;fontSize=24;container=0;fillColor=#bf7f40;strokeColor=none;" parent="1" vertex="1">
          <mxGeometry x="1920" y="800" width="40" height="40" as="geometry" />
        </mxCell>
        <mxCell id="W86Jo-8nj4oamTTUEr1X-207" value="2" style="whiteSpace=wrap;html=1;aspect=fixed;fontSize=24;container=0;fillColor=#bf7f40;strokeColor=none;" parent="1" vertex="1">
          <mxGeometry x="1960" y="800" width="40" height="40" as="geometry" />
        </mxCell>
        <mxCell id="W86Jo-8nj4oamTTUEr1X-208" value="3" style="whiteSpace=wrap;html=1;aspect=fixed;fontSize=24;container=0;fillColor=#d2a679;strokeColor=none;" parent="1" vertex="1">
          <mxGeometry x="1880" y="840" width="40" height="40" as="geometry" />
        </mxCell>
        <mxCell id="W86Jo-8nj4oamTTUEr1X-209" value="5" style="whiteSpace=wrap;html=1;aspect=fixed;fontSize=24;container=0;fillColor=#000000;gradientColor=none;fontColor=#FFFFFF;strokeColor=none;" parent="1" vertex="1">
          <mxGeometry x="1880" y="880" width="40" height="40" as="geometry" />
        </mxCell>
        <mxCell id="W86Jo-8nj4oamTTUEr1X-210" value="5" style="whiteSpace=wrap;html=1;aspect=fixed;fontSize=24;container=0;fillColor=#000000;gradientColor=none;fontColor=#FFFFFF;strokeColor=none;" parent="1" vertex="1">
          <mxGeometry x="1840" y="880" width="40" height="40" as="geometry" />
        </mxCell>
        <mxCell id="W86Jo-8nj4oamTTUEr1X-211" value="5" style="whiteSpace=wrap;html=1;aspect=fixed;fontSize=24;container=0;fillColor=#000000;gradientColor=none;fontColor=#FFFFFF;strokeColor=none;" parent="1" vertex="1">
          <mxGeometry x="1840" y="920" width="40" height="40" as="geometry" />
        </mxCell>
        <mxCell id="W86Jo-8nj4oamTTUEr1X-212" value="5" style="whiteSpace=wrap;html=1;aspect=fixed;fontSize=24;container=0;fillColor=#000000;gradientColor=none;fontColor=#FFFFFF;strokeColor=none;" parent="1" vertex="1">
          <mxGeometry x="1800" y="920" width="40" height="40" as="geometry" />
        </mxCell>
        <mxCell id="W86Jo-8nj4oamTTUEr1X-213" value="5" style="whiteSpace=wrap;html=1;aspect=fixed;fontSize=24;container=0;fillColor=#000000;gradientColor=none;fontColor=#FFFFFF;strokeColor=none;" parent="1" vertex="1">
          <mxGeometry x="1760" y="920" width="40" height="40" as="geometry" />
        </mxCell>
        <mxCell id="W86Jo-8nj4oamTTUEr1X-214" value="5" style="whiteSpace=wrap;html=1;aspect=fixed;fontSize=24;container=0;fillColor=#000000;gradientColor=none;fontColor=#FFFFFF;strokeColor=none;" parent="1" vertex="1">
          <mxGeometry x="1720" y="920" width="40" height="40" as="geometry" />
        </mxCell>
        <mxCell id="W86Jo-8nj4oamTTUEr1X-215" value="5" style="whiteSpace=wrap;html=1;aspect=fixed;fontSize=24;container=0;fillColor=#000000;gradientColor=none;fontColor=#FFFFFF;strokeColor=none;" parent="1" vertex="1">
          <mxGeometry x="1720" y="880" width="40" height="40" as="geometry" />
        </mxCell>
        <mxCell id="W86Jo-8nj4oamTTUEr1X-216" value="5" style="whiteSpace=wrap;html=1;aspect=fixed;fontSize=24;container=0;fillColor=#000000;gradientColor=none;fontColor=#FFFFFF;strokeColor=none;" parent="1" vertex="1">
          <mxGeometry x="1680" y="880" width="40" height="40" as="geometry" />
        </mxCell>
        <mxCell id="W86Jo-8nj4oamTTUEr1X-217" value="5" style="whiteSpace=wrap;html=1;aspect=fixed;fontSize=24;container=0;fillColor=#000000;gradientColor=none;fontColor=#FFFFFF;strokeColor=none;" parent="1" vertex="1">
          <mxGeometry x="1600" y="800" width="40" height="40" as="geometry" />
        </mxCell>
        <mxCell id="W86Jo-8nj4oamTTUEr1X-218" value="5" style="whiteSpace=wrap;html=1;aspect=fixed;fontSize=24;container=0;fillColor=#000000;gradientColor=none;fontColor=#FFFFFF;strokeColor=none;" parent="1" vertex="1">
          <mxGeometry x="1640" y="840" width="40" height="40" as="geometry" />
        </mxCell>
        <mxCell id="W86Jo-8nj4oamTTUEr1X-219" value="2" style="whiteSpace=wrap;html=1;aspect=fixed;fontSize=24;container=0;fillColor=#bf7f40;strokeColor=none;" parent="1" vertex="1">
          <mxGeometry x="1640" y="800" width="40" height="40" as="geometry" />
        </mxCell>
        <mxCell id="W86Jo-8nj4oamTTUEr1X-220" value="2" style="whiteSpace=wrap;html=1;aspect=fixed;fontSize=24;container=0;fillColor=#bf7f40;strokeColor=none;" parent="1" vertex="1">
          <mxGeometry x="1680" y="800" width="40" height="40" as="geometry" />
        </mxCell>
        <mxCell id="W86Jo-8nj4oamTTUEr1X-221" value="2" style="whiteSpace=wrap;html=1;aspect=fixed;fontSize=24;container=0;fillColor=#bf7f40;strokeColor=none;" parent="1" vertex="1">
          <mxGeometry x="1680" y="840" width="40" height="40" as="geometry" />
        </mxCell>
        <mxCell id="W86Jo-8nj4oamTTUEr1X-222" value="2" style="whiteSpace=wrap;html=1;aspect=fixed;fontSize=24;container=0;fillColor=#bf7f40;strokeColor=none;" parent="1" vertex="1">
          <mxGeometry x="1720" y="840" width="40" height="40" as="geometry" />
        </mxCell>
        <mxCell id="W86Jo-8nj4oamTTUEr1X-223" value="2" style="whiteSpace=wrap;html=1;aspect=fixed;fontSize=24;container=0;fillColor=#bf7f40;strokeColor=none;" parent="1" vertex="1">
          <mxGeometry x="1760" y="840" width="40" height="40" as="geometry" />
        </mxCell>
        <mxCell id="W86Jo-8nj4oamTTUEr1X-224" value="2" style="whiteSpace=wrap;html=1;aspect=fixed;fontSize=24;container=0;fillColor=#bf7f40;strokeColor=none;" parent="1" vertex="1">
          <mxGeometry x="1800" y="840" width="40" height="40" as="geometry" />
        </mxCell>
        <mxCell id="W86Jo-8nj4oamTTUEr1X-225" value="2" style="whiteSpace=wrap;html=1;aspect=fixed;fontSize=24;container=0;fillColor=#bf7f40;strokeColor=none;" parent="1" vertex="1">
          <mxGeometry x="1760" y="880" width="40" height="40" as="geometry" />
        </mxCell>
        <mxCell id="W86Jo-8nj4oamTTUEr1X-226" value="2" style="whiteSpace=wrap;html=1;aspect=fixed;fontSize=24;container=0;fillColor=#bf7f40;strokeColor=none;" parent="1" vertex="1">
          <mxGeometry x="1800" y="880" width="40" height="40" as="geometry" />
        </mxCell>
        <mxCell id="W86Jo-8nj4oamTTUEr1X-227" value="2" style="whiteSpace=wrap;html=1;aspect=fixed;fontSize=24;container=0;fillColor=#bf7f40;strokeColor=none;" parent="1" vertex="1">
          <mxGeometry x="1840" y="840" width="40" height="40" as="geometry" />
        </mxCell>
        <mxCell id="W86Jo-8nj4oamTTUEr1X-228" value="2" style="whiteSpace=wrap;html=1;aspect=fixed;fontSize=24;container=0;fillColor=#bf7f40;strokeColor=none;" parent="1" vertex="1">
          <mxGeometry x="1920" y="840" width="40" height="40" as="geometry" />
        </mxCell>
        <mxCell id="W86Jo-8nj4oamTTUEr1X-229" value="2" style="whiteSpace=wrap;html=1;aspect=fixed;fontSize=24;container=0;fillColor=#bf7f40;strokeColor=none;" parent="1" vertex="1">
          <mxGeometry x="1960" y="840" width="40" height="40" as="geometry" />
        </mxCell>
        <mxCell id="W86Jo-8nj4oamTTUEr1X-230" value="2" style="whiteSpace=wrap;html=1;aspect=fixed;fontSize=24;container=0;fillColor=#bf7f40;strokeColor=none;" parent="1" vertex="1">
          <mxGeometry x="1920" y="880" width="40" height="40" as="geometry" />
        </mxCell>
        <mxCell id="W86Jo-8nj4oamTTUEr1X-231" value="2" style="whiteSpace=wrap;html=1;aspect=fixed;fontSize=24;container=0;fillColor=#bf7f40;strokeColor=none;" parent="1" vertex="1">
          <mxGeometry x="1920" y="920" width="40" height="40" as="geometry" />
        </mxCell>
        <mxCell id="W86Jo-8nj4oamTTUEr1X-232" value="2" style="whiteSpace=wrap;html=1;aspect=fixed;fontSize=24;container=0;fillColor=#bf7f40;strokeColor=none;" parent="1" vertex="1">
          <mxGeometry x="1880" y="920" width="40" height="40" as="geometry" />
        </mxCell>
        <mxCell id="W86Jo-8nj4oamTTUEr1X-233" value="2" style="whiteSpace=wrap;html=1;aspect=fixed;fontSize=24;container=0;fillColor=#bf7f40;strokeColor=none;" parent="1" vertex="1">
          <mxGeometry x="1880" y="960" width="40" height="40" as="geometry" />
        </mxCell>
        <mxCell id="W86Jo-8nj4oamTTUEr1X-234" value="2" style="whiteSpace=wrap;html=1;aspect=fixed;fontSize=24;container=0;fillColor=#bf7f40;strokeColor=none;" parent="1" vertex="1">
          <mxGeometry x="1680" y="960" width="40" height="40" as="geometry" />
        </mxCell>
        <mxCell id="W86Jo-8nj4oamTTUEr1X-235" value="2" style="whiteSpace=wrap;html=1;aspect=fixed;fontSize=24;container=0;fillColor=#bf7f40;strokeColor=none;" parent="1" vertex="1">
          <mxGeometry x="1720" y="960" width="40" height="40" as="geometry" />
        </mxCell>
        <mxCell id="W86Jo-8nj4oamTTUEr1X-236" value="2" style="whiteSpace=wrap;html=1;aspect=fixed;fontSize=24;container=0;fillColor=#bf7f40;strokeColor=none;" parent="1" vertex="1">
          <mxGeometry x="1760" y="960" width="40" height="40" as="geometry" />
        </mxCell>
        <mxCell id="W86Jo-8nj4oamTTUEr1X-237" value="2" style="whiteSpace=wrap;html=1;aspect=fixed;fontSize=24;container=0;fillColor=#bf7f40;strokeColor=none;" parent="1" vertex="1">
          <mxGeometry x="1800" y="960" width="40" height="40" as="geometry" />
        </mxCell>
        <mxCell id="W86Jo-8nj4oamTTUEr1X-238" value="2" style="whiteSpace=wrap;html=1;aspect=fixed;fontSize=24;container=0;fillColor=#bf7f40;strokeColor=none;" parent="1" vertex="1">
          <mxGeometry x="1840" y="960" width="40" height="40" as="geometry" />
        </mxCell>
        <mxCell id="W86Jo-8nj4oamTTUEr1X-239" value="2" style="whiteSpace=wrap;html=1;aspect=fixed;fontSize=24;container=0;fillColor=#bf7f40;strokeColor=none;" parent="1" vertex="1">
          <mxGeometry x="1600" y="1000" width="40" height="40" as="geometry" />
        </mxCell>
        <mxCell id="W86Jo-8nj4oamTTUEr1X-240" value="2" style="whiteSpace=wrap;html=1;aspect=fixed;fontSize=24;container=0;fillColor=#bf7f40;strokeColor=none;" parent="1" vertex="1">
          <mxGeometry x="1640" y="1000" width="40" height="40" as="geometry" />
        </mxCell>
        <mxCell id="W86Jo-8nj4oamTTUEr1X-241" value="2" style="whiteSpace=wrap;html=1;aspect=fixed;fontSize=24;container=0;fillColor=#bf7f40;strokeColor=none;" parent="1" vertex="1">
          <mxGeometry x="1680" y="1000" width="40" height="40" as="geometry" />
        </mxCell>
        <mxCell id="W86Jo-8nj4oamTTUEr1X-242" value="2" style="whiteSpace=wrap;html=1;aspect=fixed;fontSize=24;container=0;fillColor=#bf7f40;strokeColor=none;" parent="1" vertex="1">
          <mxGeometry x="1720" y="1000" width="40" height="40" as="geometry" />
        </mxCell>
        <mxCell id="W86Jo-8nj4oamTTUEr1X-243" value="2" style="whiteSpace=wrap;html=1;aspect=fixed;fontSize=24;container=0;fillColor=#bf7f40;strokeColor=none;" parent="1" vertex="1">
          <mxGeometry x="1760" y="1000" width="40" height="40" as="geometry" />
        </mxCell>
        <mxCell id="W86Jo-8nj4oamTTUEr1X-244" value="2" style="whiteSpace=wrap;html=1;aspect=fixed;fontSize=24;container=0;fillColor=#bf7f40;strokeColor=none;" parent="1" vertex="1">
          <mxGeometry x="1640" y="920" width="40" height="40" as="geometry" />
        </mxCell>
        <mxCell id="W86Jo-8nj4oamTTUEr1X-245" value="2" style="whiteSpace=wrap;html=1;aspect=fixed;fontSize=24;container=0;fillColor=#bf7f40;strokeColor=none;" parent="1" vertex="1">
          <mxGeometry x="1680" y="920" width="40" height="40" as="geometry" />
        </mxCell>
        <mxCell id="W86Jo-8nj4oamTTUEr1X-246" value="2" style="whiteSpace=wrap;html=1;aspect=fixed;fontSize=24;container=0;fillColor=#bf7f40;strokeColor=none;" parent="1" vertex="1">
          <mxGeometry x="1600" y="960" width="40" height="40" as="geometry" />
        </mxCell>
        <mxCell id="W86Jo-8nj4oamTTUEr1X-247" value="2" style="whiteSpace=wrap;html=1;aspect=fixed;fontSize=24;container=0;fillColor=#bf7f40;strokeColor=none;" parent="1" vertex="1">
          <mxGeometry x="1640" y="960" width="40" height="40" as="geometry" />
        </mxCell>
      </root>
    </mxGraphModel>
  </diagram>
</mxfile>
